<svg width="1280" height="832" viewBox="0 0 1280 832" fill="none" xmlns="http://www.w3.org/2000/svg">
<rect x="-9.31738" width="1340.63" height="1339" fill="#6562C2"/>
<path opacity="0.5" fill-rule="evenodd" clip-rule="evenodd" d="M1056.53 1302.66L1146.26 1320.25L1142.8 1340.76H1159.05L1198.19 1117.25L1207.24 1340.76H1223.21L1220.29 1265.37L1261.29 1264.3L1265.55 1340.76H1273.54L1269.28 1264.04L1330.78 1262.44V1246.45L1280.19 1247.79L1276.47 1220.88L1331.05 1222.48V1214.49L1275.4 1212.89L1267.95 1160.41L1300.96 1124.18L1331.32 1143.36V1133.77L1306.55 1118.05L1331.32 1090.61V1078.63L1266.35 1150.29C1262.89 1130.31 1254.37 1079.96 1250.64 1058.65L1331.32 1072.5V1056.25L1291.11 1049.32L1300.7 989.385C1311.35 991.516 1321.73 993.647 1331.32 995.778V979.262L1308.42 974.467L1331.32 945.164V919.057L1290.85 970.737L1238.39 959.815L1260.76 802.909L1331.32 815.696V788.524L1323.86 787.192L1331.32 736.578V626.024L1323.06 681.967L1247.98 663.852C1251.7 644.139 1261.82 591.66 1265.55 571.68L1331.32 583.934V567.684L1288.98 559.692L1322.26 378.012L1331.32 379.61V352.438L1309.48 348.442L1315.34 307.418L1331.32 303.955V295.697L1316.41 298.893L1329.45 208.32L1331.32 208.586V6.39344L1326.52 39.959L1276.2 43.1557L1273.8 0H1265.82L1268.21 43.6885L1225.61 46.3524L1223.75 0H1207.77L1209.64 47.418L1150.52 51.1475L1159.58 0.266393H1143.34L1134.55 49.8156L1045.35 26.1065L1050.14 0.266393H1022.98L1013.93 49.5492L952.691 59.9385L945.236 0.266393H928.994L936.715 62.6024L876.806 72.7254L850.979 20.2459C866.156 15.7172 891.983 8.25819 919.675 0.266393H862.162L843.79 5.59426L841.127 0.266393H811.306L817.696 13.0533C808.377 15.7172 795.862 19.1803 783.348 22.6434C781.484 17.3156 778.555 9.32377 775.626 0.266393H767.106L775.626 24.7746C760.715 29.0369 747.402 32.7664 742.077 34.0983L703.469 22.1106L705.865 0.266393H697.877L695.747 19.4467L646.222 3.9959L647.554 0H630.513L624.122 17.582L581.787 0H566.876L553.829 33.832L493.121 12.7869C495.517 8.52459 497.914 4.26229 500.31 0H481.672C472.619 15.4508 462.767 30.3688 452.383 43.6885L445.194 0H428.952L431.082 12.2541L390.61 36.2295L369.309 0H359.989L410.047 84.9795C408.982 85.7786 407.651 86.5778 406.586 87.377C390.61 97.7663 369.841 105.492 345.878 111.352L353.865 0H345.878L337.623 113.217C328.837 115.082 319.784 116.68 310.465 118.279L301.678 0.266393H285.436L288.365 40.2254L191.711 28.5041L190.912 0.266393H174.937L175.469 26.6393L153.103 23.9754L129.139 0.532787H117.69L140.056 22.377L58.5796 12.5205L60.1772 0.532787H52.1893L50.8579 11.7213L18.6401 7.72541L19.7052 0.532787H-7.45368L-8.51873 7.19262V209.385L60.976 222.172L72.9578 279.713L-8.51873 296.762V305.02L15.9775 299.959L23.6991 359.365L-8.51873 353.238V380.41L26.8943 387.069L0.00169057 570.082L-8.51873 568.483V584.733L-2.39468 585.799L-8.51873 626.823V737.377L13.3148 588.729L89.1998 602.848L69.2301 803.176L-8.25247 789.323V816.496L62.8398 829.282L-8.25247 920.123V946.229L62.3073 856.188L42.8701 990.983L-8.51873 980.327V996.844C12.2498 1001.11 29.5569 1004.84 40.4737 1006.97L32.2195 1064.24L-8.51873 1057.32V1073.57L-3.72599 1074.36L-8.51873 1079.69V1091.68L5.59322 1075.96L29.8232 1080.22L19.4389 1152.95L-8.78499 1135.1V1144.69L18.1076 1161.74L10.386 1216.35L-8.51873 1215.82V1223.81L9.3209 1224.34L6.12574 1247.25L-8.51873 1247.79V1263.77L3.72937 1263.5L-7.45368 1342.36H19.7052L30.8882 1264.84L61.5085 1268.83L52.4555 1342.09H60.4434L66.8337 1291.74L117.956 1342.09H129.406L67.8988 1281.88L69.4964 1269.9L173.605 1283.75L174.937 1342.09H190.912L189.581 1285.88L282.241 1298.13L285.436 1342.09H301.678L300.08 1319.45L348.008 1311.19L345.878 1342.09H353.865L354.664 1332.77L360.256 1342.09H369.575L355.729 1318.65L356.262 1309.86L422.029 1298.67L429.218 1342.09H445.46L422.828 1205.96L537.321 1214.75C524.806 1253.11 506.434 1300.27 482.204 1342.09H500.843C510.694 1324.24 519.481 1305.86 527.469 1287.75L580.722 1307.99L567.408 1342.09H582.319L576.994 1339.96L603.62 1271.5L652.613 1282.95L631.045 1342.09H648.086L688.824 1229.94L710.924 1227.01L698.144 1342.09H706.132L711.191 1296L747.669 1286.15L767.372 1342.09H775.892C768.437 1320.78 759.118 1294.14 755.39 1284.02L779.886 1277.36L811.572 1342.09H841.393L827.814 1314.12L934.585 1281.09L928.728 1322.91L862.694 1342.09H920.207C923.136 1341.29 926.065 1340.49 929.26 1339.43L929.526 1342.09H945.768L944.97 1334.9C977.72 1325.31 1010.2 1315.98 1029.64 1310.39L1023.78 1342.09H1050.94L1056.53 1302.66ZM1042.16 1233.13L958.017 1221.68L966.537 1162.27L1052.54 1176.93L1042.16 1233.13ZM862.428 1128.18L868.286 1095.68L957.484 1112.46L952.958 1143.63L862.428 1128.18ZM950.827 1159.61L947.1 1184.92L887.989 1176.39L893.847 1150.02L950.827 1159.61ZM652.346 1127.64L612.673 1126.58L618.797 1092.48L652.346 1108.73C651.814 1111.92 651.548 1114.86 651.548 1118.05C651.548 1121.25 651.814 1124.45 652.346 1127.64ZM664.595 1154.81C666.725 1157.48 669.121 1159.88 671.517 1162.01L641.43 1201.97L612.939 1153.48L664.595 1154.81ZM662.731 1083.69L586.313 1046.93L669.387 1016.56L681.902 1066.64C674.18 1070.9 667.79 1076.76 662.731 1083.69ZM133.133 998.708L142.985 976.598L264.934 947.561L247.36 1008.57L133.133 998.708ZM243.632 1024.28L235.378 1066.11L205.557 1058.65L207.687 1021.35L243.632 1024.28ZM73.4904 136.926C100.649 139.057 132.068 140.656 165.085 141.188L164.819 149.18L69.4964 178.75L73.4904 136.926ZM40.74 117.745L49.793 66.8641L137.394 77.7862C136.595 87.11 134.198 111.352 132.867 123.872C97.7203 122.54 65.7687 120.143 40.74 117.745ZM248.159 225.102L258.543 317.807C234.58 320.471 162.955 328.729 137.394 331.925L148.577 234.692L248.159 225.102ZM164.553 157.704L162.156 217.376L141.92 219.241L123.282 215.778L117.956 172.09L164.553 157.704ZM259.608 325.799L263.336 359.365L132.601 375.349L136.595 340.185L259.608 325.799ZM810.773 319.405L795.863 371.885L734.622 395.594C725.569 370.553 718.646 346.044 714.652 331.393L810.773 319.405ZM726.9 268.524L773.762 262.93L779.088 296.229L730.894 302.09L726.9 268.524ZM959.88 610.04L903.166 596.721L931.39 508.278L980.116 517.336C976.655 533.586 967.868 573.278 959.88 610.04ZM988.104 518.667L1048.01 529.856L969.732 602.848L988.104 518.667ZM453.448 537.049L546.107 528.258L556.225 568.484L445.194 571.68L453.448 537.049ZM453.448 467.254L538.12 496.823L542.114 512.54L460.371 520.266L453.448 467.254ZM875.209 596.721L860.032 644.139L793.999 618.032L811.572 573.811L875.209 596.721ZM814.501 566.086L829.678 527.725C852.31 540.778 874.41 552.233 887.19 558.627L877.605 588.995L814.501 566.086ZM771.366 631.353L740.213 604.98L777.49 551.968L797.193 566.087L771.366 631.353ZM768.171 639.078L766.573 642.808L688.558 649.467L649.417 597.254L688.292 571.148L768.171 639.078ZM680.57 652.663L614.537 690.757L599.36 631.085L642.495 602.048C649.95 611.638 672.849 642.007 680.57 652.663ZM644.359 591.127C640.897 586.865 634.773 578.873 630.247 573.279L662.731 549.836L681.902 566.086L644.359 591.127ZM637.702 595.655L597.496 622.561L591.905 600.717L623.59 577.807L637.702 595.655ZM594.301 719.262L523.475 698.217L576.728 649.467L594.301 719.262ZM514.422 695.553L422.828 668.381L443.33 579.939L558.089 576.476L574.331 640.41L514.422 695.553ZM415.106 524.529L402.592 418.238L438.537 412.91L452.649 521.066L415.106 524.529ZM414.307 540.778L445.194 537.847L430.283 601.515L399.663 591.659L414.307 540.778ZM428.419 609.508L415.106 665.984L381.29 655.861L397.266 599.385L428.419 609.508ZM419.633 684.097L375.965 802.642L343.481 789.056L377.03 671.311L419.633 684.097ZM427.354 686.496L469.158 699.016L451.052 752.828C439.07 749.098 416.97 742.172 407.917 739.508L427.354 686.496ZM463.832 765.347C472.086 768.278 486.198 773.073 502.973 778.933L476.347 839.405L440.401 835.142L463.832 765.347ZM466.495 757.622L484.601 703.278L546.64 721.659L531.729 780.265L466.495 757.622ZM554.362 724.057L598.828 737.377L617.2 810.369L539.185 782.93L554.362 724.057ZM616.933 698.75L651.281 679.036L668.056 738.975L624.123 727.786L616.933 698.75ZM658.204 674.775L687.76 657.726L763.112 651.332L722.64 752.828L676.843 741.107L658.204 674.775ZM758.053 707.807L794.265 719.795L781.218 767.746L738.616 756.824L758.053 707.807ZM760.982 700.348L790.803 625.225L857.369 651.598L833.938 724.589L760.982 700.348ZM860.298 730.45L927.662 742.438L871.215 836.741L836.334 805.04L860.298 730.45ZM868.552 704.877L900.77 604.446L958.283 618.033C952.425 644.405 947.366 668.381 944.703 679.836L894.646 709.672L868.552 704.877ZM965.205 623.893L989.169 653.196L954.289 673.975L965.205 623.893ZM892.25 543.176C865.357 529.59 804.915 497.356 776.691 473.381C775.36 472.315 774.029 470.983 772.698 469.651L837.399 414.242L910.089 487.766L892.25 543.176ZM794.531 429.692L773.496 389.2L798.525 379.61L825.95 403.052L794.531 429.692ZM788.407 435.021L763.112 456.599C753.793 442.214 745.272 422.767 737.551 402.787L765.775 391.865L788.407 435.021ZM766.307 485.635C778.822 496.29 796.927 508.278 815.832 519.467L800.389 558.36L725.835 504.282L760.183 479.508C762.313 481.639 764.177 483.77 766.307 485.635ZM771.1 547.173L734.089 599.652L669.654 544.775L718.912 509.345L771.1 547.173ZM672.849 522.663L658.471 474.979L694.15 457.929L709.061 496.823L672.849 522.663ZM656.074 466.987L644.625 428.893L669.92 394.528L691.221 450.205L656.074 466.987ZM659.003 532.52L587.645 583.934L561.817 481.905L639.033 466.987L659.003 532.52ZM560.219 473.914L529.865 353.77L602.555 344.979L636.903 459.262L560.219 473.914ZM535.989 487.5L452.383 458.196L446.259 411.844L514.422 401.721L535.989 487.5ZM401.527 410.245L396.734 370.02L502.973 356.967L512.292 393.729L401.527 410.245ZM391.941 343.647L383.953 309.016L497.381 314.344L501.642 330.327L391.941 343.647ZM397.799 515.471L321.382 427.828L318.186 379.611L380.758 371.885L397.799 515.471ZM315.257 352.971L309.666 318.34C331.233 315.143 355.463 311.148 367.711 309.549L376.231 345.512L315.257 352.971ZM310.198 380.676L313.127 425.697L279.312 428.893L280.377 384.139L310.198 380.676ZM315.79 433.688L396.468 526.393L276.383 537.848L279.046 437.418C289.962 436.086 309.4 434.221 315.79 433.688ZM397 542.377L330.701 775.471L298.216 757.356L367.179 545.307L397 542.377ZM339.221 804.774L422.029 839.405L412.709 867.11L331.765 830.081L339.221 804.774ZM383.421 805.84L404.988 746.701L448.389 760.287L427.088 824.221L383.421 805.84ZM437.738 843.135L474.216 847.398L465.962 901.742L427.088 875.102L437.738 843.135ZM482.737 844.999L510.428 781.597C532.262 789.323 557.291 798.114 579.124 805.573L554.894 929.712L524.008 941.433L473.151 906.536L482.737 844.999ZM605.218 927.848L618.797 976.598L561.551 1000.57L535.457 954.487L605.218 927.848ZM563.947 926.516L587.112 808.503C600.159 813.032 611.608 817.028 619.862 819.958L639.566 897.745L563.947 926.516ZM628.649 745.369L718.113 768.279L694.948 798.914L645.69 813.033L628.649 745.369ZM726.634 770.41L811.039 791.988L716.782 839.939L701.871 802.91L726.634 770.41ZM788.939 769.877L801.72 722.459L831.541 732.316L817.163 777.07L788.939 769.877ZM833.672 813.831L909.29 882.294L903.699 892.95C865.357 885.491 832.074 879.098 813.968 875.635L833.672 813.831ZM877.339 842.602L936.183 744.302L977.187 751.761L913.018 875.102L877.339 842.602ZM985.442 753.093L998.489 755.491L973.194 906.536C952.691 902.54 931.923 898.544 911.953 894.815L985.442 753.093ZM989.968 854.856L1056 870.573L1048.01 920.921C1028.04 917.192 1004.88 912.663 980.915 908.135L989.968 854.856ZM1000.09 928.114L1045.08 936.639L1025.11 1019.75L988.104 1012.29L1000.09 928.114ZM1052.81 938.237L1094.88 946.229L1079.43 1030.68L1033.1 1021.35L1052.81 938.237ZM1056 922.519L1063.99 871.904L1107.92 875.368L1097.8 930.511C1087.95 928.646 1073.57 925.716 1056 922.519ZM1065.32 863.913L1070.65 830.081L1115.11 836.209L1109.25 867.377L1065.32 863.913ZM1071.98 822.09L1080.23 770.143L1125.76 778.402L1116.71 828.217L1071.98 822.09ZM1057.33 862.581L991.299 846.864L1006.48 756.823L1072.24 768.544L1057.33 862.581ZM918.876 713.933L999.554 665.983L1059.2 739.241L918.876 713.933ZM1006.48 661.721L1111.38 599.385L1134.82 627.889L1029.64 689.959L1006.48 661.721ZM996.092 648.933L968.401 615.101L1056.8 532.52L1101 586.597L996.092 648.933ZM1060.26 473.647L997.423 465.389C999.287 453.401 1001.15 442.212 1002.22 436.618L1064.26 449.139L1060.26 473.647ZM1058.93 481.373L1053.61 514.405L991.033 502.684C992.098 495.492 993.962 484.303 995.826 472.848L1058.93 481.373ZM983.312 501.353L936.716 492.562L957.484 427.295L994.228 434.754L983.312 501.353ZM915.681 470.184L849.914 403.586L901.569 359.365L944.437 381.209L915.681 470.184ZM832.074 397.46L803.85 373.484L819.56 318.341L915.681 306.619C917.012 311.681 918.876 316.476 921.539 320.738L832.074 397.46ZM795.063 294.364L782.283 212.582L836.867 204.057L849.647 287.704L795.063 294.364ZM750.597 466.72L715.983 491.761L675.777 387.069L703.469 349.507C712.522 381.741 729.563 434.753 750.597 466.72ZM641.696 419.304L618.531 342.849L698.676 332.992C699.209 334.857 699.741 336.988 700.274 339.386L641.696 419.304ZM628.915 314.61L603.088 317.807L559.154 247.213L629.182 236.291L628.915 314.61ZM594.301 318.872L527.203 327.131L553.829 253.873L594.301 318.872ZM514.422 315.143L478.476 176.086L555.16 203.258L514.422 315.143ZM495.251 305.819L432.946 302.889L416.171 208.852L468.891 203.79L495.251 305.819ZM424.692 302.623L382.089 300.758L361.853 214.447L408.183 209.918L424.692 302.623ZM365.847 301.557L308.601 310.348L303.009 275.717L358.126 268.258L365.847 301.557ZM307.27 354.037L279.312 357.5L275.584 323.934C281.975 322.869 291.294 321.537 301.944 319.938L307.27 354.037ZM276.117 553.832L358.658 546.107L316.589 675.041L273.454 657.193L276.117 553.832ZM314.192 682.765L290.761 754.692L271.057 751.495L273.188 665.983L314.192 682.765ZM288.099 762.418L269.194 820.492L270.791 759.488C276.383 760.287 283.572 761.619 288.099 762.418ZM295.82 765.082L328.57 783.463L293.69 906.004L267.33 893.217L268.395 848.73L295.82 765.082ZM329.902 837.807L410.313 874.57L385.285 949.693L308.601 912.664L329.902 837.807ZM424.425 883.093L514.955 945.163L436.939 974.999L399.663 956.884L424.425 883.093ZM434.543 1003.5L506.168 1038.13L487.53 1072.77L423.893 1059.18L434.543 1003.5ZM456.91 984.589L527.736 957.417L554.096 1003.5L523.209 1016.29L456.91 984.589ZM621.194 984.589L631.578 1022.15L576.195 1042.4L532.794 1021.62L621.194 984.589ZM612.939 924.917L643.293 913.196L667.257 1008.56L639.033 1018.95L612.939 924.917ZM647.554 820.758L694.949 807.172L740.48 919.59L677.375 939.303L647.554 820.758ZM719.977 847.397L809.442 801.844L761.781 950.491L719.977 847.397ZM808.909 891.353L885.327 906.004L870.682 988.586L783.348 971.004L808.909 891.353ZM883.729 1007.77L969.998 1025.35L963.341 1072.23L880.001 1029.08L883.729 1007.77ZM886.392 991.783L901.036 908.934L984.111 924.918L972.129 1009.1L886.392 991.783ZM985.708 1028.28L1076.5 1046.66L1067.45 1095.41L978.519 1077.83L985.708 1028.28ZM1086.89 1138.57L1125.76 1143.63L1113.78 1205.43L1075.44 1200.64L1086.89 1138.57ZM1088.22 1130.57L1106.06 1033.34L1145.73 1040.27L1127.09 1135.64L1088.22 1130.57ZM1108.99 1017.62L1121.24 951.557C1133.75 954.221 1154.52 958.484 1179.01 963.545L1164.64 1027.21L1108.99 1017.62ZM1123.9 935.839L1138.81 854.323L1234.66 867.642L1221.88 956.351L1123.9 935.839ZM1135.88 752.827L1071.18 741.106L1034.43 696.352L1139.61 634.282L1155.32 653.462L1135.88 752.827ZM1170.23 660.921L1236.79 677.171C1233.07 696.085 1223.48 744.303 1218.95 767.745L1151.86 755.757L1170.23 660.921ZM1159.31 632.683L1080.23 535.983L1174.49 553.831L1159.31 632.683ZM1069.31 517.602L1085.02 418.77L1197.65 435.02L1177.68 538.114L1069.31 517.602ZM1129.76 408.914L1139.08 342.848L1213.1 356.7L1200.85 419.303L1129.76 408.914ZM1135.35 314.877L1104.99 309.283L1114.58 254.406L1145.2 257.603L1135.35 314.877ZM1131.09 341.25C1128.42 359.632 1123.9 392.664 1121.77 407.582L1087.69 402.521L1098.6 334.857L1131.09 341.25ZM1089.02 306.086L1030.97 295.164C1030.97 294.099 1030.97 292.767 1030.97 291.701C1030.97 283.443 1029.11 275.451 1026.18 268.259L1081.03 235.226L1095.94 267.459L1089.02 306.086ZM1082.89 332.193L1065.59 440.882L960.147 419.57L982.779 349.242C1000.09 346.312 1015 335.656 1023.52 320.738L1082.89 332.193ZM972.395 323.401C954.822 323.401 940.443 309.016 940.443 291.434C940.443 273.852 954.822 259.467 972.395 259.467C989.968 259.467 1004.35 273.852 1004.35 291.434C1004.35 309.016 989.968 323.401 972.395 323.401ZM954.821 347.643L946.567 373.483L907.959 353.77L931.39 333.79C937.781 339.917 945.769 344.713 954.821 347.643ZM914.882 279.712L857.635 286.639L844.589 202.725L905.563 193.135L932.455 248.012C923.935 256.536 917.545 267.458 914.882 279.712ZM768.969 198.197L764.976 166.23L881.599 144.119L898.373 178.217L768.969 198.197ZM766.307 214.979L772.431 254.938L725.835 260.533L721.308 221.906L766.307 214.979ZM722.906 303.156L637.169 313.546V234.96L713.587 222.972L722.906 303.156ZM639.832 218.443L667.257 119.878L701.073 132.665L681.636 211.783L639.832 218.443ZM631.312 219.775L562.616 230.431L610.809 98.2996L660.068 116.947L631.312 219.775ZM557.823 195.8L518.416 181.947L532.262 132.132L574.598 149.714L557.823 195.8ZM510.961 179.283L476.08 167.029L459.039 101.763L525.073 129.201L510.961 179.283ZM464.897 188.34L354.931 198.73L349.872 163.033L452.916 142.521L464.897 188.34ZM356.262 260.533L301.678 267.992L294.223 220.841L345.878 215.779L356.262 260.533ZM295.021 277.049L300.613 311.68L274.785 315.676L270.791 280.246L295.021 277.049ZM269.726 272.253L264.401 223.503L286.235 221.372L293.69 268.79L269.726 272.253ZM264.401 386.271L263.336 430.492C250.556 431.558 224.728 433.955 214.344 434.754L215.941 391.865L264.401 386.271ZM197.835 649.2L196.504 685.43C187.451 685.163 165.883 684.364 156.831 684.098L158.428 646.536L197.835 649.2ZM161.357 630.287L201.031 566.086L198.368 632.951L161.357 630.287ZM195.971 693.422L194.374 736.578C181.327 733.914 167.481 731.25 154.701 728.853L156.298 692.09L195.971 693.422ZM193.841 744.57L187.185 798.381L145.115 787.459L153.636 736.578L193.841 744.57ZM191.445 829.017L214.876 834.877L212.48 866.844L188.25 855.123L191.445 829.017ZM192.51 820.757L201.563 745.901L221.266 749.63L215.675 826.351L192.51 820.757ZM229.254 751.495L254.815 756.557L251.62 885.491L220.468 870.573L229.254 751.495ZM202.362 738.176L203.959 693.955C214.343 694.488 242.301 696.086 256.147 696.885L254.815 748.566C244.165 746.435 224.461 742.439 202.362 738.176ZM204.492 685.697L205.823 649.734L257.478 653.464L256.679 688.894L204.492 685.697ZM206.356 633.483L209.551 554.631L260.141 550.901L258.011 636.946L206.356 633.483ZM209.817 546.639L211.148 514.938L260.939 516.27L260.141 542.909L209.817 546.639ZM211.681 498.954L213.811 443.012L262.804 438.749L261.206 500.286L211.681 498.954ZM134.731 401.988L207.687 393.197L206.089 435.287L131.536 434.488L134.731 401.988ZM205.823 443.278L203.693 498.688L125.412 496.557L130.737 442.479L205.823 443.278ZM203.161 514.939L201.829 549.837L176.268 591.394L122.749 523.73L123.814 512.808L203.161 514.939ZM171.475 598.586L152.038 629.754L112.099 626.824L121.418 535.184L171.475 598.586ZM150.441 645.737L146.713 726.987C129.14 723.524 113.43 720.327 103.312 718.462L110.767 642.806L150.441 645.737ZM98.7853 492.827L66.5674 488.299L82.5432 396.127L108.104 400.922L98.7853 492.827ZM102.247 726.454L145.648 734.979L130.204 826.884L93.7264 809.302L102.247 726.454ZM143.784 795.451L186.12 806.373L180.528 851.127L137.926 830.615L143.784 795.451ZM184.522 883.093L271.324 924.917L267.33 938.77L146.713 967.54L184.522 883.093ZM278.779 928.381L321.381 948.893L302.743 1013.09L255.881 1009.1L278.779 928.381ZM336.026 956.085L372.77 973.667L345.877 1086.09L299.548 1081.29L336.026 956.085ZM399.929 1099.94L395.935 1120.45L288.897 1117.52L297.151 1089.28L399.929 1099.94ZM353.866 1086.88L380.226 977.397L419.633 996.577L401.26 1092.21L353.866 1086.88ZM422.561 1067.17L536.522 1091.68L532.528 1124.18L412.443 1120.72L422.561 1067.17ZM495.784 1074.63L513.623 1041.6L553.296 1060.78L539.184 1083.95L495.784 1074.63ZM544.776 1089.81L560.22 1064.24L611.076 1088.75L604.419 1126.31L540.25 1124.45L544.776 1089.81ZM710.125 1086.09C727.699 1086.09 742.077 1100.47 742.077 1118.05C742.077 1135.63 727.699 1150.02 710.125 1150.02C692.552 1150.02 678.174 1135.63 678.174 1118.05C678.44 1100.47 692.552 1086.09 710.125 1086.09ZM726.101 1061.58C721.042 1060.25 715.717 1059.45 710.126 1059.45C709.327 1059.45 708.528 1059.45 707.729 1059.45L679.505 947.029L743.675 927.049L758.053 962.746L726.101 1061.58ZM778.555 986.454L868.02 1004.57L866.688 1012.56L758.053 1083.95C755.657 1080.76 753.26 1077.83 750.331 1075.16L778.555 986.454ZM864.558 1023.22L846.452 1125.24L768.437 1111.92C767.638 1104.2 765.508 1097.01 762.047 1090.61L864.558 1023.22ZM886.126 1148.42L880.002 1175.06L808.377 1164.67L822.222 1137.5L886.126 1148.42ZM869.617 1087.42L878.404 1037.33L962.011 1080.49L958.549 1104.2L869.617 1087.42ZM1055.47 1160.94L968.933 1146.29L977.454 1085.82L1065.85 1103.13L1055.47 1160.94ZM1096.47 1293.87L1059.73 1286.68L1074.11 1208.36L1112.18 1213.15L1096.47 1293.87ZM1149.19 1304.26L1112.18 1297.07L1135.61 1176.66L1170.23 1184.38L1149.19 1304.26ZM1171.56 1176.13L1137.21 1168.4L1161.71 1042.66L1194.19 1048.26L1171.56 1176.13ZM1272.21 1247.79L1219.75 1249.12L1218.42 1214.49L1261.02 1167.6C1263.42 1185.98 1269.54 1229.4 1272.21 1247.79ZM1259.43 1157.48L1217.89 1203.3L1211.77 1051.72L1242.12 1056.78L1259.43 1157.48ZM1284.72 985.389L1275.14 1045.86L1172.62 1028.28L1187 964.876C1217.09 971.536 1251.97 978.729 1284.72 985.389ZM1236.26 859.65L1140.67 846.331L1152.39 783.196L1245.05 799.712L1236.26 859.65ZM1267.68 776.536L1226.94 769.344L1235.2 726.987L1275.14 734.979L1267.68 776.536ZM1307.89 783.73L1275.67 777.869L1283.39 736.578L1314.01 742.705L1307.89 783.73ZM1320.4 697.151L1314.81 734.446L1236.53 718.729L1244.52 678.77L1320.4 697.151ZM1239.99 661.188L1173.42 644.938L1190.73 556.762L1257.56 569.283L1239.99 661.188ZM1280.73 557.295L1193.66 540.779L1208.3 466.189L1294.57 483.504L1280.73 557.295ZM1325.19 47.4175L1315.87 111.885L1279.93 111.352L1276.73 50.3478L1325.19 47.4175ZM1279.4 127.335L1313.48 127.868L1295.11 255.204H1267.68L1279.4 127.335ZM1266.88 263.463H1294.04L1282.59 342.582L1259.96 338.32L1266.88 263.463ZM1252.24 336.721L1237.06 333.791L1228.54 126.537L1271.41 127.336L1252.24 336.721ZM1268.48 50.8805L1271.67 111.352L1228.01 110.553L1225.61 53.5445L1268.48 50.8805ZM1228.81 359.631L1314.01 375.615L1295.64 475.779L1209.64 458.463L1228.81 359.631ZM1220.82 330.861L1143.34 316.209C1146.26 298.627 1151.59 268.791 1153.45 258.402L1218.42 265.328L1220.82 330.861ZM1217.89 257.069L1115.91 246.147L1123.63 202.725L1215.76 201.925L1217.89 257.069ZM1148.66 58.0731L1209.37 54.3435L1211.77 114.282L1138.81 113.749L1148.66 58.0731ZM1137.74 121.743L1212.56 122.275L1215.49 193.669L1125.23 194.468L1137.74 121.743ZM1043.49 32.7671L1132.69 56.4761L1123.1 111.353L1033.9 84.9802L1043.49 32.7671ZM1121.77 119.345L1100.73 239.754L1032.84 92.9717L1121.77 119.345ZM1027.51 119.878L1077.57 227.767L1022.45 261.066C1017.93 253.874 1012.07 247.48 1004.88 242.685L1027.51 119.878ZM1011.8 56.7416L979.317 233.36C977.454 233.094 975.59 233.094 973.46 233.094L952.957 66.8646L1011.8 56.7416ZM936.982 69.5288L957.484 234.959C956.951 234.959 956.685 235.225 956.152 235.225L879.469 79.119L936.982 69.5288ZM824.086 26.6393L878.138 136.66L824.885 146.783L787.874 36.7623L824.086 26.6393ZM780.153 38.8932C787.874 61.5367 810.773 130.266 816.897 148.381L764.177 158.237L750.065 47.1514L780.153 38.8932ZM753.26 200.595L690.422 210.451L708.794 135.595L746.87 149.98L753.26 200.595ZM745.538 140.922L669.92 112.152L687.759 72.9919L739.414 91.9058L745.538 140.922ZM699.209 36.4951L733.823 47.1509L738.35 82.8476L690.688 65.532L699.209 36.4951ZM639.832 18.115L691.753 34.365L682.168 66.865L662.731 109.488L613.472 90.8404L639.832 18.115ZM572.467 4.26293L620.395 24.2424L610.011 52.4801L560.219 35.1646L572.467 4.26293ZM555.16 50.6155L604.419 67.6647L577.26 141.988L534.392 124.14L555.16 50.6155ZM483.536 25.8394L547.705 47.9501L527.203 121.208L456.643 91.905L450.519 68.7287C462.501 55.6755 473.418 41.2902 483.536 25.8394ZM393.273 42.0903L431.082 19.7132L437.472 58.6067C430.283 66.3321 422.828 72.9919 415.106 79.1189L393.273 42.0903ZM414.041 99.8975C422.029 94.5696 430.017 88.4426 437.472 81.7828L451.318 135.061L349.073 155.307L345.079 126.803C371.971 120.41 395.669 111.619 414.041 99.8975ZM336.825 128.402L346.676 199.529L239.639 209.652L234.313 140.123C270.259 138.791 305.406 135.062 336.825 128.402ZM288.365 55.4105L293.157 119.345C261.206 123.341 226.858 124.939 193.042 124.939L191.179 43.4228L288.365 55.4105ZM226.592 140.656L231.917 210.717L170.144 216.578L173.339 141.455C190.646 141.455 208.752 141.189 226.592 140.656ZM149.908 38.6266L174.67 41.5569L175.469 74.5897L146.18 70.8602C146.979 63.6676 148.843 48.2168 149.908 38.6266ZM175.735 82.5825L176.8 124.939C164.552 124.939 152.571 124.673 140.855 124.14L145.381 78.853L175.735 82.5825ZM14.9127 22.1113L141.92 37.5622L138.193 69.7957L10.3862 53.8121L14.9127 22.1113ZM9.32091 61.8029L41.805 65.7988L32.7521 116.946C19.9714 115.614 9.58717 114.549 1.86554 113.75L9.32091 61.8029ZM59.1122 204.057L-9.31746 191.537L-0.530776 129.734C13.3149 131.332 36.4798 133.996 65.5025 136.127L59.1122 204.057ZM68.6975 187.275L109.702 174.488L114.761 214.18L67.0999 205.39L68.6975 187.275ZM68.1652 222.172L132.335 233.893L116.093 375.348L99.318 372.151L68.1652 222.172ZM22.6341 296.495L73.2241 285.84L90.7975 370.553L30.8883 359.364L22.6341 296.495ZM14.3801 571.414L41.2727 388.402L74.5556 394.529L42.8703 576.476L14.3801 571.414ZM50.8581 578.074L65.2363 496.024L98.2529 500.553L89.7325 585.266L50.8581 578.074ZM90.2651 837.541L170.144 875.901L116.093 997.11L68.1652 993.115L90.2651 837.541ZM65.7689 1009.1L191.978 1019.75L189.847 1057.05L57.5147 1067.44L65.7689 1009.1ZM189.315 1065.31L186.386 1114.32L153.369 1113.26V1067.97L189.315 1065.31ZM56.1833 1075.96L145.381 1069.04V1113.52L51.1243 1110.86L56.1833 1075.96ZM103.844 1256.84L31.6869 1247.25L42.6037 1171.33L111.033 1180.65L103.844 1256.84ZM43.669 1163.34L47.3967 1137.5L114.761 1139.36L111.832 1172.66L43.669 1163.34ZM136.329 1261.11L111.832 1257.91L118.755 1181.72L144.05 1185.18L136.329 1261.11ZM144.849 1177.19L119.554 1173.73L122.749 1139.36L148.577 1140.16L144.849 1177.19ZM180.794 1267.23L152.304 1263.5L160.026 1187.05L186.12 1188.65L180.794 1267.23ZM160.825 1178.79L164.819 1140.7L269.726 1143.63L272.655 1185.18L160.825 1178.79ZM188.782 1268.3L194.374 1188.91L273.454 1193.44L279.844 1280.55L188.782 1268.3ZM272.389 1116.99L202.628 1115.12L205.291 1066.91L281.176 1086.35L272.389 1116.99ZM243.366 1068.24L251.887 1025.08L298.217 1029.08L283.838 1078.63L243.366 1068.24ZM285.702 1144.16L395.403 1147.36L400.195 1175.59L288.897 1185.18L285.702 1144.16ZM289.43 1192.91L401.527 1183.32L408.45 1224.34L292.625 1236.86L289.43 1192.91ZM297.95 1309.86L293.69 1253.11L410.846 1240.33L418.834 1289.08L297.95 1309.86ZM419.899 1196.11L411.911 1147.62L553.829 1151.62C550.634 1163.87 545.575 1182.79 538.386 1205.16L419.899 1196.11ZM582.053 1298.93L529.067 1278.69C532.262 1270.7 535.457 1262.7 538.386 1254.98L594.035 1268.03L582.053 1298.93ZM543.977 1239.79C557.557 1201.7 566.077 1169.2 570.071 1152.15L603.354 1153.22L635.838 1208.89L602.023 1253.38L543.977 1239.79ZM656.606 1266.17L610.809 1255.51L642.228 1214.22L671.251 1226.21L656.606 1266.17ZM674.18 1218.48L647.288 1207.29L677.908 1167.07C681.902 1169.73 685.896 1171.6 690.422 1173.2L674.18 1218.48ZM690.688 1219.82L706.398 1176.39C707.729 1176.39 708.794 1176.39 710.126 1176.39C716.516 1176.39 722.906 1175.33 728.764 1173.46L747.669 1212.09L690.688 1219.82ZM711.191 1285.88L718.114 1224.34L751.663 1219.82L775.36 1268.3L711.191 1285.88ZM776.425 1209.96L751.663 1159.34C759.917 1151.08 765.775 1140.16 767.905 1128.18L813.702 1135.9L776.425 1209.96ZM823.287 1305.33L809.175 1276.82L856.038 1263.5L863.759 1292.81L823.287 1305.33ZM934.851 1270.7L871.481 1290.41L864.026 1261.11L939.378 1239.53L934.851 1270.7ZM941.774 1222.21L801.986 1262.17L780.952 1219.02L804.649 1172.4L946.035 1192.91L941.774 1222.21ZM944.437 1316.52L955.62 1237.66L995.027 1242.99L985.708 1304.53L944.437 1316.52ZM1031.51 1291.21L994.495 1301.86L1003.28 1244.06L1039.23 1248.85L1031.51 1291.21Z" fill="#454293"/>
</svg>
