<svg width="28" height="28" viewBox="0 0 28 28" fill="none" xmlns="http://www.w3.org/2000/svg">
<path d="M21.5485 19.6347L22.0035 23.3213C22.1201 24.2897 21.0818 24.9663 20.2535 24.4646L15.3651 21.5597C14.8285 21.5597 14.3035 21.5247 13.7902 21.4547C14.6535 20.4397 15.1668 19.1563 15.1668 17.768C15.1668 14.4547 12.2968 11.7714 8.75015 11.7714C7.39681 11.7714 6.14849 12.1563 5.11015 12.833C5.07515 12.5413 5.06348 12.2497 5.06348 11.9463C5.06348 6.638 9.67181 2.33301 15.3651 2.33301C21.0585 2.33301 25.6668 6.638 25.6668 11.9463C25.6668 15.0963 24.0451 17.8847 21.5485 19.6347Z" stroke="#292D32" stroke-width="1.5" stroke-linecap="round" stroke-linejoin="round"/>
<path d="M15.1668 17.7681C15.1668 19.1564 14.6535 20.4398 13.7902 21.4548C12.6352 22.8548 10.8035 23.7531 8.75016 23.7531L5.70516 25.5614C5.19183 25.8764 4.53849 25.4448 4.60849 24.8498L4.90016 22.5515C3.33683 21.4665 2.3335 19.7281 2.3335 17.7681C2.3335 15.7148 3.43017 13.9065 5.11017 12.8331C6.1485 12.1565 7.39683 11.7715 8.75016 11.7715C12.2968 11.7715 15.1668 14.4548 15.1668 17.7681Z" stroke="#292D32" stroke-width="1.5" stroke-linecap="round" stroke-linejoin="round"/>
</svg>
