<svg width="28" height="28" viewBox="0 0 28 28" fill="none" xmlns="http://www.w3.org/2000/svg">
<path d="M5.83333 11.667C4.55 11.667 3.5 12.717 3.5 14.0003C3.5 15.2837 4.55 16.3337 5.83333 16.3337C7.11667 16.3337 8.16667 15.2837 8.16667 14.0003C8.16667 12.717 7.11667 11.667 5.83333 11.667Z" stroke="#292D32" stroke-width="1.5"/>
<path d="M22.1668 11.667C20.8835 11.667 19.8335 12.717 19.8335 14.0003C19.8335 15.2837 20.8835 16.3337 22.1668 16.3337C23.4502 16.3337 24.5002 15.2837 24.5002 14.0003C24.5002 12.717 23.4502 11.667 22.1668 11.667Z" stroke="#292D32" stroke-width="1.5"/>
<path d="M13.9998 11.667C12.7165 11.667 11.6665 12.717 11.6665 14.0003C11.6665 15.2837 12.7165 16.3337 13.9998 16.3337C15.2832 16.3337 16.3332 15.2837 16.3332 14.0003C16.3332 12.717 15.2832 11.667 13.9998 11.667Z" stroke="#292D32" stroke-width="1.5"/>
</svg>
