<svg width="28" height="28" viewBox="0 0 28 28" fill="none" xmlns="http://www.w3.org/2000/svg">
<path d="M19.7876 7.19824C22.1209 8.81991 23.7309 11.3982 24.0576 14.3732" stroke="#292D32" stroke-width="1.5" stroke-linecap="round" stroke-linejoin="round"/>
<path d="M4.07178 14.4318C4.37511 11.4685 5.96178 8.89017 8.27178 7.25684" stroke="#292D32" stroke-width="1.5" stroke-linecap="round" stroke-linejoin="round"/>
<path d="M9.55664 24.4297C10.91 25.118 12.45 25.503 14.0716 25.503C15.635 25.503 17.105 25.153 18.4233 24.5114" stroke="#292D32" stroke-width="1.5" stroke-linecap="round" stroke-linejoin="round"/>
<path d="M14.0715 8.98374C15.8627 8.98374 17.3148 7.53165 17.3148 5.7404C17.3148 3.94916 15.8627 2.49707 14.0715 2.49707C12.2802 2.49707 10.8281 3.94916 10.8281 5.7404C10.8281 7.53165 12.2802 8.98374 14.0715 8.98374Z" stroke="#292D32" stroke-width="1.5" stroke-linecap="round" stroke-linejoin="round"/>
<path d="M5.63591 23.2396C7.42716 23.2396 8.87925 21.7875 8.87925 19.9963C8.87925 18.205 7.42716 16.7529 5.63591 16.7529C3.84467 16.7529 2.39258 18.205 2.39258 19.9963C2.39258 21.7875 3.84467 23.2396 5.63591 23.2396Z" stroke="#292D32" stroke-width="1.5" stroke-linecap="round" stroke-linejoin="round"/>
<path d="M22.3659 23.2396C24.1571 23.2396 25.6092 21.7875 25.6092 19.9963C25.6092 18.205 24.1571 16.7529 22.3659 16.7529C20.5746 16.7529 19.1226 18.205 19.1226 19.9963C19.1226 21.7875 20.5746 23.2396 22.3659 23.2396Z" stroke="#292D32" stroke-width="1.5" stroke-linecap="round" stroke-linejoin="round"/>
</svg>
